<svg xmlns="http://www.w3.org/2000/svg" xmlns:xlink="http://www.w3.org/1999/xlink" viewBox="0 0 100 100" version="1.1" x="0px" y="0px">
    <title>Undo v4.3</title>
    <desc>Created with Sketch.</desc>
    <g stroke="none" stroke-width="1" fill="none" fill-rule="evenodd">
        <g fill-rule="nonzero" fill="#000000"><path d="M37.980908,42.1404123 C37.7823132,42.3390071 37.8389639,42.5 38.1198478,42.5 L57.0010581,42.5 C62.7998524,42.5 67.5,47.200306 67.5,53 C67.5,58.8016831 62.805316,63.5 57.0010581,63.5 L47.5065834,63.5 C46.6745204,63.5 46,62.8342028 46,62 L46,62 C46,61.1715729 46.6716052,60.5 47.5065834,60.5 L57.0010581,60.5 C61.1479421,60.5 64.5,57.1453481 64.5,53 C64.5,48.8571376 61.1429755,45.5 57.0010581,45.5 L38.1198478,45.5 C37.8445187,45.5 37.7764432,45.6551229 37.980908,45.8595877 L41.5609489,49.4396286 C42.1465759,50.0252556 42.1505306,50.9707897 41.5606602,51.5606602 L41.5606602,51.5606602 C40.9748737,52.1464466 40.0242,52.1455204 39.4428569,51.5641772 L32.9358228,45.0571431 C32.3519787,44.4732991 32.3544796,43.5242 32.9358228,42.9428569 L39.4428569,36.4358228 C40.0267009,35.8519787 40.9707897,35.8494694 41.5606602,36.4393398 L41.5606602,36.4393398 C42.1464466,37.0251263 42.1418993,37.979421 41.5609489,38.5603714 L37.980908,42.1404123 Z"/>
        </g>
    </g>
</svg>