<!-- <svg id="visual" viewBox="0 0 900 600" width="900" height="600" xmlns="http://www.w3.org/2000/svg" xmlns:xlink="http://www.w3.org/1999/xlink" version="1.1"><path d="M0 512L18.8 514.3C37.7 516.7 75.3 521.3 112.8 515.2C150.3 509 187.7 492 225.2 483.2C262.7 474.3 300.3 473.7 337.8 479.5C375.3 485.3 412.7 497.7 450.2 510.5C487.7 523.3 525.3 536.7 562.8 539.5C600.3 542.3 637.7 534.7 675.2 528.2C712.7 521.7 750.3 516.3 787.8 519.3C825.3 522.3 862.7 533.7 881.3 539.3L900 545L900 601L881.3 601C862.7 601 825.3 601 787.8 601C750.3 601 712.7 601 675.2 601C637.7 601 600.3 601 562.8 601C525.3 601 487.7 601 450.2 601C412.7 601 375.3 601 337.8 601C300.3 601 262.7 601 225.2 601C187.7 601 150.3 601 112.8 601C75.3 601 37.7 601 18.8 601L0 601Z" fill="#c1fff9" stroke-linecap="round" stroke-linejoin="miter"></path></svg> -->
<!-- <svg xmlns="http://www.w3.org/2000/svg" viewBox="0 0 1440 320"><path fill="#c1fff9" fill-opacity="1" d="M0,224L48,208C96,192,192,160,288,170.7C384,181,480,235,576,234.7C672,235,768,181,864,160C960,139,1056,149,1152,170.7C1248,192,1344,224,1392,240L1440,256L1440,320L1392,320C1344,320,1248,320,1152,320C1056,320,960,320,864,320C768,320,672,320,576,320C480,320,384,320,288,320C192,320,96,320,48,320L0,320Z"></path></svg> -->
<!-- <svg id="wave" style="transform:rotate(0deg); transition: 0.3s" viewBox="0 0 1440 190" version="1.1" xmlns="http://www.w3.org/2000/svg"><defs><linearGradient id="sw-gradient-0" x1="0" x2="0" y1="1" y2="0"><stop stop-color="rgba(193, 255, 249, 1)" offset="0%"></stop><stop stop-color="rgba(193, 255, 249, 1)" offset="100%"></stop></linearGradient></defs><path style="transform:translate(0, 0px); opacity:1" fill="url(#sw-gradient-0)" d="M0,38L16,60.2C32,82,64,127,96,123.5C128,120,160,70,192,66.5C224,63,256,108,288,126.7C320,146,352,139,384,142.5C416,146,448,158,480,161.5C512,165,544,158,576,148.8C608,139,640,127,672,114C704,101,736,89,768,76C800,63,832,51,864,63.3C896,76,928,114,960,107.7C992,101,1024,51,1056,34.8C1088,19,1120,38,1152,63.3C1184,89,1216,120,1248,117.2C1280,114,1312,76,1344,60.2C1376,44,1408,51,1440,47.5C1472,44,1504,32,1536,50.7C1568,70,1600,120,1632,142.5C1664,165,1696,158,1728,145.7C1760,133,1792,114,1824,91.8C1856,70,1888,44,1920,53.8C1952,63,1984,108,2016,117.2C2048,127,2080,101,2112,85.5C2144,70,2176,63,2208,57C2240,51,2272,44,2288,41.2L2304,38L2304,190L2288,190C2272,190,2240,190,2208,190C2176,190,2144,190,2112,190C2080,190,2048,190,2016,190C1984,190,1952,190,1920,190C1888,190,1856,190,1824,190C1792,190,1760,190,1728,190C1696,190,1664,190,1632,190C1600,190,1568,190,1536,190C1504,190,1472,190,1440,190C1408,190,1376,190,1344,190C1312,190,1280,190,1248,190C1216,190,1184,190,1152,190C1120,190,1088,190,1056,190C1024,190,992,190,960,190C928,190,896,190,864,190C832,190,800,190,768,190C736,190,704,190,672,190C640,190,608,190,576,190C544,190,512,190,480,190C448,190,416,190,384,190C352,190,320,190,288,190C256,190,224,190,192,190C160,190,128,190,96,190C64,190,32,190,16,190L0,190Z"></path></svg> -->
<svg id="wave" style="transform:rotate(0deg); transition: 0.3s" viewBox="0 0 1440 280" version="1.1" xmlns="http://www.w3.org/2000/svg"><defs><linearGradient id="sw-gradient-0" x1="0" x2="0" y1="1" y2="0"><stop stop-color="rgba(3.483, 189.799, 175.243, 1)" offset="0%"></stop><stop stop-color="rgba(193, 255, 249, 1)" offset="100%"></stop></linearGradient></defs><path style="transform:translate(0, 0px); opacity:1" fill="url(#sw-gradient-0)" d="M0,252L48,242.7C96,233,192,215,288,214.7C384,215,480,233,576,210C672,187,768,121,864,112C960,103,1056,149,1152,182C1248,215,1344,233,1440,224C1536,215,1632,177,1728,135.3C1824,93,1920,47,2016,37.3C2112,28,2208,56,2304,93.3C2400,131,2496,177,2592,205.3C2688,233,2784,243,2880,247.3C2976,252,3072,252,3168,238C3264,224,3360,196,3456,154C3552,112,3648,56,3744,42C3840,28,3936,56,4032,93.3C4128,131,4224,177,4320,191.3C4416,205,4512,187,4608,177.3C4704,168,4800,168,4896,144.7C4992,121,5088,75,5184,74.7C5280,75,5376,121,5472,126C5568,131,5664,93,5760,65.3C5856,37,5952,19,6048,37.3C6144,56,6240,112,6336,116.7C6432,121,6528,75,6624,65.3C6720,56,6816,84,6864,98L6912,112L6912,280L6864,280C6816,280,6720,280,6624,280C6528,280,6432,280,6336,280C6240,280,6144,280,6048,280C5952,280,5856,280,5760,280C5664,280,5568,280,5472,280C5376,280,5280,280,5184,280C5088,280,4992,280,4896,280C4800,280,4704,280,4608,280C4512,280,4416,280,4320,280C4224,280,4128,280,4032,280C3936,280,3840,280,3744,280C3648,280,3552,280,3456,280C3360,280,3264,280,3168,280C3072,280,2976,280,2880,280C2784,280,2688,280,2592,280C2496,280,2400,280,2304,280C2208,280,2112,280,2016,280C1920,280,1824,280,1728,280C1632,280,1536,280,1440,280C1344,280,1248,280,1152,280C1056,280,960,280,864,280C768,280,672,280,576,280C480,280,384,280,288,280C192,280,96,280,48,280L0,280Z"></path><defs><linearGradient id="sw-gradient-1" x1="0" x2="0" y1="1" y2="0"><stop stop-color="rgba(178.903, 197.509, 255, 1)" offset="0%"></stop><stop stop-color="rgba(255, 167.384, 236.398, 1)" offset="100%"></stop></linearGradient></defs><path style="transform:translate(0, 50px); opacity:0.9" fill="url(#sw-gradient-1)" d="M0,140L48,121.3C96,103,192,65,288,84C384,103,480,177,576,186.7C672,196,768,140,864,126C960,112,1056,140,1152,130.7C1248,121,1344,75,1440,84C1536,93,1632,159,1728,154C1824,149,1920,75,2016,46.7C2112,19,2208,37,2304,60.7C2400,84,2496,112,2592,107.3C2688,103,2784,65,2880,51.3C2976,37,3072,47,3168,60.7C3264,75,3360,93,3456,121.3C3552,149,3648,187,3744,172.7C3840,159,3936,93,4032,98C4128,103,4224,177,4320,172.7C4416,168,4512,84,4608,46.7C4704,9,4800,19,4896,37.3C4992,56,5088,84,5184,98C5280,112,5376,112,5472,107.3C5568,103,5664,93,5760,102.7C5856,112,5952,140,6048,154C6144,168,6240,168,6336,182C6432,196,6528,224,6624,238C6720,252,6816,252,6864,252L6912,252L6912,280L6864,280C6816,280,6720,280,6624,280C6528,280,6432,280,6336,280C6240,280,6144,280,6048,280C5952,280,5856,280,5760,280C5664,280,5568,280,5472,280C5376,280,5280,280,5184,280C5088,280,4992,280,4896,280C4800,280,4704,280,4608,280C4512,280,4416,280,4320,280C4224,280,4128,280,4032,280C3936,280,3840,280,3744,280C3648,280,3552,280,3456,280C3360,280,3264,280,3168,280C3072,280,2976,280,2880,280C2784,280,2688,280,2592,280C2496,280,2400,280,2304,280C2208,280,2112,280,2016,280C1920,280,1824,280,1728,280C1632,280,1536,280,1440,280C1344,280,1248,280,1152,280C1056,280,960,280,864,280C768,280,672,280,576,280C480,280,384,280,288,280C192,280,96,280,48,280L0,280Z"></path></svg>